<?xml version="1.0" encoding="UTF-8" standalone="no"?>
<!-- Created with Inkscape (http://www.inkscape.org/) -->

<svg
   width="477.41797"
   height="413.54883"
   viewBox="0 0 477.41797 413.54883"
   version="1.1"
   id="svg1"
   xmlns:xlink="http://www.w3.org/1999/xlink"
   xmlns="http://www.w3.org/2000/svg"
   xmlns:svg="http://www.w3.org/2000/svg">
  <defs
     id="defs1">
    <linearGradient
       id="swatch116">
      <stop
         style="stop-color:#000000;stop-opacity:1;"
         offset="0"
         id="stop116" />
    </linearGradient>
    <linearGradient
       id="linearGradient114">
      <stop
         style="stop-color:#f67b76;stop-opacity:1;"
         offset="0"
         id="stop114" />
      <stop
         style="stop-color:#f67b76;stop-opacity:1;"
         offset="0.60088795"
         id="stop117" />
      <stop
         style="stop-color:#b0281f;stop-opacity:1;"
         offset="0.60088795"
         id="stop118" />
      <stop
         style="stop-color:#a61c13;stop-opacity:1;"
         offset="1"
         id="stop115" />
    </linearGradient>
    <linearGradient
       id="linearGradient3">
      <stop
         style="stop-color:#f67b76;stop-opacity:1;"
         offset="0"
         id="stop3" />
      <stop
         style="stop-color:#f67b76;stop-opacity:1;"
         offset="0.5"
         id="stop5" />
      <stop
         style="stop-color:#b62f27;stop-opacity:1;"
         offset="0.5"
         id="stop6" />
      <stop
         style="stop-color:#9d1007;stop-opacity:1;"
         offset="1"
         id="stop4" />
    </linearGradient>
    <linearGradient
       xlink:href="#linearGradient3"
       id="linearGradient6"
       gradientUnits="userSpaceOnUse"
       x1="17.092121"
       y1="190.22519"
       x2="494.51138"
       y2="190.22519"
       spreadMethod="pad"
       gradientTransform="translate(-3.3329222,76.65721)" />
    <linearGradient
       xlink:href="#linearGradient114"
       id="linearGradient115"
       x1="154.39258"
       y1="194.57668"
       x2="317.11328"
       y2="194.57668"
       gradientUnits="userSpaceOnUse" />
    <linearGradient
       xlink:href="#swatch116"
       id="linearGradient116"
       x1="154.39258"
       y1="194.57668"
       x2="317.11328"
       y2="194.57668"
       gradientUnits="userSpaceOnUse" />
    <linearGradient
       xlink:href="#linearGradient3"
       id="linearGradient2"
       gradientUnits="userSpaceOnUse"
       gradientTransform="translate(-3.3329222,76.65721)"
       x1="17.092121"
       y1="190.22519"
       x2="494.51138"
       y2="190.22519"
       spreadMethod="pad" />
    <linearGradient
       xlink:href="#linearGradient3"
       id="linearGradient4"
       gradientUnits="userSpaceOnUse"
       gradientTransform="translate(-3.3329222,76.65721)"
       x1="17.092121"
       y1="190.22519"
       x2="494.51138"
       y2="190.22519"
       spreadMethod="pad" />
    <linearGradient
       xlink:href="#linearGradient3"
       id="linearGradient5"
       gradientUnits="userSpaceOnUse"
       gradientTransform="translate(-3.3329222,76.65721)"
       x1="17.092121"
       y1="190.22519"
       x2="494.51138"
       y2="190.22519"
       spreadMethod="pad" />
    <linearGradient
       xlink:href="#linearGradient3"
       id="linearGradient7"
       gradientUnits="userSpaceOnUse"
       gradientTransform="translate(-3.3329222,76.65721)"
       x1="17.092121"
       y1="190.22519"
       x2="494.51138"
       y2="190.22519"
       spreadMethod="pad" />
    <linearGradient
       xlink:href="#linearGradient3"
       id="linearGradient8"
       gradientUnits="userSpaceOnUse"
       gradientTransform="translate(-3.3329222,76.65721)"
       x1="17.092121"
       y1="190.22519"
       x2="494.51138"
       y2="190.22519"
       spreadMethod="pad" />
  </defs>
  <g
     id="layer1"
     transform="translate(-13.759766,-60.154297)">
    <path
       d="m 281.93359,111.1875 c -0.38477,0.41116 -0.77286,0.82053 -1.16406,1.22656 -3.94688,4.09649 -8.21883,7.92717 -12.75391,11.42383 -6.12195,4.72023 -12.71225,8.82077 -19.56835,12.20313 -13.61626,6.71737 -28.27687,10.60101 -42.3711,10.87304 -1.23454,0.0238 -2.46428,0.0184 -3.68945,-0.0156 l -12.20313,21.13672 -9.23828,16 c 7.6243,3.41254 16.46899,5.21281 25.77539,5.0332 18.03256,-0.34804 38.3166,-7.92371 54.64063,-20.50977 6.8924,-5.31422 13.09796,-11.5357 18.33594,-18.25586 3.54699,-4.55067 6.65159,-9.33059 9.2246,-14.21093 1.23021,-2.33338 2.33823,-4.68893 3.31641,-7.05469 l -9.17773,-15.89648 z"
       style="fill:url(#linearGradient2)"
       id="path114" />
    <path
       d="m 183.60156,310.08398 29.125,-50.44336 c -2.12416,0.14123 -4.24229,0.22966 -6.34961,0.26368 -20.61215,0.33271 -40.32871,-4.78926 -55.01953,-14.64063 -1.40047,-0.93913 -2.75497,-1.92283 -4.06055,-2.94726 l -4.10546,7.11328 h -0.002 v 0.002 h -0.002 l -10.07422,17.45117 -7.36328,12.75391 c 2.14681,3.39187 4.73771,6.55924 7.75586,9.43945 11.29388,10.77602 29.28233,18.24007 50.0957,21.00781 z"
       style="fill:url(#linearGradient4)"
       id="path192" />
    <path
       d="m 359.4375,378.12305 50.68164,87.7832 c 1.43788,2.49124 2.13653,5.12452 2.20703,7.70508 h 78.85156 L 409.34766,331.87695 c -11.54696,16.66535 -28.75471,32.50461 -49.91016,46.2461 z"
       style="fill:url(#linearGradient5)"
       id="path189" />
    <path
       d="m 120.49414,419.39258 c -21.08825,-5.69163 -39.49752,-14.26627 -53.216796,-25.45313 -1.747199,-1.42479 -3.409937,-2.88586 -4.990235,-4.38086 l -48.527343,84.05274 h 77.673828 c 0.07046,-2.58055 0.767194,-5.21383 2.205078,-7.70508 z"
       style="fill:url(#linearGradient7)"
       id="path186" />
    <path
       d="m 252.46875,60.154297 -22.16211,38.384765 -8.97852,15.550778 -11.7246,20.31055 c 17.04967,-1.24309 35.67776,-8.61865 50.875,-20.33594 1.9036,-1.46772 3.75597,-3.00398 5.54882,-4.60156 3.35123,-2.98622 6.49913,-6.18368 9.4043,-9.537109 l -1.35742,-2.349609 z"
       style="fill:url(#linearGradient8)"
       id="path109" />
    <path
       d="m 299.75977,142.06445 c -1.80909,3.427 -3.83734,6.78512 -6.0625,10.05078 -6.68136,9.8056 -15.14172,18.77092 -24.79883,26.2168 -18.28019,14.09464 -40.74845,22.66717 -61.93946,23.07617 -11.45015,0.22099 -22.55575,-2.05992 -32.22461,-6.61328 l -14.36914,24.88672 -5.97265,10.34375 c 3.41889,3.23375 7.4951,6.07607 12.08398,8.46484 10.94527,5.69765 24.80613,8.8248 39.60352,8.58594 4.76798,-0.077 9.66252,-0.49371 14.60937,-1.22851 l 17.04297,-29.51954 14.39258,-24.89648 13.90039,24.89648 6.01953,10.42383 c -0.0193,0.0143 -0.0393,0.0287 -0.0586,0.043 l 30.95312,53.4707 c 21.79481,-14.62054 38.203,-33.31803 45.18164,-51.6914 0.18949,-0.49888 0.37335,-0.997 0.54883,-1.4961 v -0.002 h 0.002 0.002 v -0.002 h 0.002 l 0.002,0.002 c 0.0896,0.0226 0.82265,0.77233 0.91211,0.79492 h 0.002 0.002 0.002 v -0.002 l -13.69336,-23.7168 -18.79101,-32.02148 c 0,0 0,-0.002 0,-0.002 7.2e-4,-0.003 10e-4,-0.005 0.002,-0.008 L 307.60584,155.654 Z"
       style="display:inline;fill:url(#linearGradient115);stroke:url(#linearGradient116);stroke-width:0"
       id="path1" />
    <path
       d="m 252.125,191.43164 -14.39258,24.89648 -17.04297,29.51954 -7.96289,13.79296 -29.125,50.44336 -17.91601,31.03321 -35.1875,60.94726 -116.724612,71.54297 77.992187,0.0957 0.04883,-0.0918 h 16.238275 l 29.11133,-50.42383 42.66797,-73.90234 21.94531,-38.00977 31.51563,-54.58789 9.26953,-16.05469 9.31641,-16.13672 5.86914,10.16602 6.69336,11.59375 24.49609,42.42578 34.98828,60.60352 21.5293,37.28906 50.25,87.03711 h 15.97851 l 0.0488,0.0918 79.4375,-0.0937 -117.76953,-71.30273 -13.96289,-24.18359 -21.36523,-37.00586 -35.13282,-60.85157 -24.01562,-41.5957 -6.7793,-11.74414 -6.11914,-10.59766 z"
       style="stroke-width:0"
       id="path3" />
    <path
       d="m 115.93945,296.63086 -40.437497,70.03711 c 3.514068,5.92942 8.245786,11.39075 14.132813,16.1914 20.883074,17.02701 58.032574,27.18134 99.091794,26.67774 41.42589,-0.50818 88.02646,-11.56967 125.52735,-29.94531 37.50004,-18.37548 66.14374,-44.18538 77.38867,-69.48438 0.78153,-1.75829 1.47891,-3.51705 2.09179,-5.27539 l -21.91015,-37.94922 -11.39844,-19.74023 c -11.60051,19.35885 -31.04098,37.3497 -54.99219,51.08398 -29.84275,17.11283 -66.52247,27.52099 -101.11718,28.01758 -34.59472,0.49657 -67.26736,-9.41281 -86.69922,-27.95508 -0.57233,-0.54617 -1.13063,-1.09937 -1.67774,-1.6582 z"
       style="fill:url(#linearGradient6)"
       id="path111" />
  </g>
</svg>
