<?xml version="1.0" encoding="UTF-8" standalone="no"?>
<!-- Created with Inkscape (http://www.inkscape.org/) -->

<svg
   width="344.22647"
   height="99.422302"
   viewBox="0 0 344.22647 99.422302"
   version="1.1"
   id="svg1"
   xmlns="http://www.w3.org/2000/svg"
   xmlns:svg="http://www.w3.org/2000/svg">
  <defs
     id="defs1">
    <rect
       x="265.5"
       y="177.70761"
       width="354.5"
       height="135.29237"
       id="rect55" />
  </defs>
  <g
     id="layer1"
     style="opacity:1"
     transform="translate(-75.517319,-177.70761)">
    <g
       id="g55"
       transform="matrix(2.5884877,0,0,2.5884877,-32.208255,-865.86939)">
      <path
         d="m 72.341995,411.57386 -1.090067,0.54069 -1.932809,0.27874 -1.67718,0.2418 -1.543837,0.22264 0.616349,1.06754 1.249095,-0.18016 -1.051941,0.52172 -0.684504,0.33939 -0.760163,0.37712 -0.489722,0.24278 -0.49624,0.24615 -1.442691,0.71532 -0.334449,0.16594 -0.411888,0.20426 -2.191792,1.08691 -1.008087,1.74613 -0.06341,0.10983 -0.761547,1.31903 -1.786029,3.0932 0.803822,0.99209 0.281308,0.34729 1.578209,-2.73367 0.761548,-1.31903 1.721628,-2.98178 2.752237,-1.36486 1.442691,-0.71532 0.130381,-0.0648 0.11122,-0.0551 1.138666,-0.56479 0.306002,-0.15172 1.30026,-0.6446 1.412465,-0.7005 1.525465,-0.75661 1.469162,-0.21177 0.639464,-0.0923 2.02e-4,1.52863 L 75,412.00155 v -0.42769 z"
         style="display:inline;opacity:1;fill:#ff0000;stroke-width:0"
         id="path31" />
      <path
         d="m 52.57951,422.5832 -10.962323,18.98711 21.683638,-5.73738 -0.789993,-0.9751 -0.258788,-0.31963 -15.286843,4.43317 -2.438925,0.70722 0.04228,-0.0731 9.066655,-15.70387 -0.289408,-0.35696 -0.766288,-0.94606 z"
         style="display:inline;opacity:1;fill:#000080;stroke-width:0"
         id="path26" />
      <path
         d="m 74.830306,412.00155 -1.144195,2.42253 9.6e-4,5.82885 v 0.9743 l 2.02e-4,0.60272 -0.509673,0.65941 -0.0093,0.0121 -0.957318,1.23862 0.618722,1.07151 0.957318,-1.23863 0.194187,-0.25128 0.845704,-1.09442 -0.01282,-0.0221 0.01796,0.0156 z"
         style="display:inline;opacity:1;fill:#000080;stroke-width:0"
         id="path20" />
      <path
         d="m 70.137167,425.11616 -5.09397,6.59059 -0.151518,0.19616 -0.795922,1.02982 -0.03753,0.0486 -0.397467,0.51402 -0.282888,0.36625 -8.16e-4,0.0204 0.02469,0.0304 0.03733,0.0463 0.33425,0.41248 0.263135,0.32477 0.118923,0.0314 0.154878,-0.20051 0.906151,-1.17225 0.833455,-1.07822 0.114775,-0.14875 4.591013,-5.93987 z"
         style="display:inline;opacity:1;fill:#000080;stroke-width:0"
         id="path34" />
      <path
         d="m 57.515243,414.03412 -1.295914,2.24474 -0.779722,1.35043 -1.572677,2.72399 v 1.08987 0.69952 l 0.391144,0.483 0.06657,0.0818 0.166137,-0.28783 1.805588,-3.12718 0.001,-0.002 0.761547,-1.31903 1.869,-3.23702 z"
         style="display:inline;opacity:1;fill:#ff0000;stroke-width:0"
         id="path32" />
      <path
         d="m 51.106001,410.50177 1.287419,2.72576 v -1.24356 l 0.889755,0.12584 1.455928,0.20624 1.302631,0.64598 1.412663,0.70031 1.300063,0.64479 0.312916,0.15527 1.10686,0.54879 0.02489,0.0122 0.185498,0.0921 1.442691,-0.71532 -0.617138,-0.306 -0.368823,-0.18293 -0.738038,-0.36606 -0.706629,-0.35044 -0.619905,-0.30739 -0.680355,-0.33722 -1.412466,-0.7005 0.298099,-0.51639 -1.873938,-0.26511 -1.142025,-0.56637 z"
         style="display:inline;opacity:1;fill:#000080;stroke-width:0"
         id="path30" />
      <path
         d="m 63.136366,403.16089 -4.845255,8.39203 -0.298099,0.51639 1.412466,0.7005 0.565382,-0.97924 3.165506,-5.48274 3.160963,5.47484 1.67718,-0.2418 z"
         style="display:inline;opacity:1;fill:#ff0000;stroke-width:0"
         id="path27" />
      <path
         d="m 61.88421,411.9649 -0.693986,1.20189 -0.117145,0.20308 0.706628,0.35045 0.738039,0.36605 0.390552,-0.6764 -0.670872,-0.0948 1.266281,-1.12108 z"
         style="display:inline;opacity:1;fill:#ff0000;stroke-width:0"
         id="path22" />
      <path
         d="m 63.503707,409.15992 -1.619497,2.80498 1.619497,0.22916 -1.266281,1.12108 0.670872,0.0948 0.595409,-1.0314 0.51797,0.89727 0.467991,0.81053 0.760164,-0.37711 0.684503,-0.33939 -0.197153,-0.34156 -0.616348,-1.06755 z"
         style="display:inline;opacity:1;fill:#000080;stroke-width:0"
         id="path21" />
      <path
         d="m 60.227969,415.37923 -0.510661,0.88441 -0.797303,1.38106 2.191793,-1.08691 0.411888,-0.20426 0.14895,-0.258 -0.02489,-0.0122 -1.10686,-0.54879 z"
         style="opacity:1;fill:#ff0000;stroke-width:0"
         id="path23" />
      <path
         d="m 50.601059,411.12009 v 11.00914 2e-4 0.0154 l 0.766288,0.94605 0.289408,0.35697 0.976281,1.20524 2.02e-4,2e-4 0.803624,0.99189 0.281309,0.34729 4.634471,5.72098 0.17641,0.2177 0.804612,0.99308 0.939933,1.16019 0.258788,0.31963 0.789993,0.9751 21.683636,5.73738 -11.167771,-19.34309 -0.8457,1.09441 -0.194191,0.25129 9.15555,15.85815 -8.114473,-2.14715 -9.507581,-2.75718 -0.154878,0.20052 -0.118923,-0.0314 -0.263135,-0.32477 -0.33425,-0.41248 -0.03733,-0.0462 -0.02469,-0.0305 -0.0077,-0.009 -0.01995,-0.0247 -0.0966,-0.11912 -0.03121,-0.0387 -0.45199,-0.55787 -0.143618,-0.1774 h -2.02e-4 l -0.106873,-0.13197 -0.697542,-0.86111 -0.219476,-0.27103 -5.215854,-6.43828 -0.281308,-0.34729 -0.803823,-0.99209 -0.97628,-1.20543 -0.06658,-0.0818 -0.391143,-0.483 v -0.69952 -1.08987 -6.05366 z"
         style="opacity:1;fill:#ff0000;stroke-width:0"
         id="path35" />
      <path
         d="m 62.229506,431.43591 c -0.01871,0.002 -0.02922,0.004 -0.06085,0.009 -0.0028,4.8e-4 -0.0056,9.6e-4 -0.0085,0.001 -0.0027,4e-4 -0.0055,9.6e-4 -0.0083,10e-4 l -0.258589,0.097 -0.919981,0.34511 0.219476,0.27104 0.697541,0.86111 0.106873,0.13196 0.02805,-0.009 0.31094,-0.10015 h 2.02e-4 l 0.08356,-0.0115 0.08396,-0.002 h 2.02e-4 l 0.05848,4.8e-4 0.09462,9.6e-4 h 0.0044 l 0.01067,2e-4 0.0083,-2e-4 h 0.0022 l 0.10312,-9.6e-4 0.05373,-4.8e-4 h 6.25e-4 2.02e-4 l 0.08396,0.002 0.08356,0.0115 h 2.02e-4 l 0.356574,0.11497 0.06499,0.0209 0.03753,-0.0486 0.795922,-1.02981 0.151518,-0.19617 -0.963638,-0.36131 -0.14263,-0.0535 -0.115565,-0.0435 c -0.0057,-9.6e-4 -0.01115,-0.002 -0.01659,-0.003 h -2.02e-4 c -0.03166,-0.005 -0.0421,-0.007 -0.06084,-0.009 h -2.03e-4 -2.02e-4 c -0.03991,0 -0.05987,-10e-6 -0.106478,0 -0.294208,3e-5 -0.07475,-4e-5 -0.672058,0 -0.04653,-10e-6 -0.06643,0 -0.106281,0 h -2.03e-4 z"
         style="opacity:1;fill:#000080;stroke-width:0"
         id="path33" />
      <path
         d="m 68.202776,415.47661 -1.412465,0.70051 1.96718,3.40711 0.566765,0.98201 0.184905,0.16021 -0.04366,0.0843 1.830872,3.17104 0.03242,0.028 0.509673,-0.65941 -2.02e-4,-0.60272 v -0.9743 l -1.514986,-2.62364 v -2e-4 l -0.725003,-1.25581 z"
         style="opacity:1;fill:#ff0000;stroke-width:0"
         id="path28" />
      <path
         d="m 66.491815,416.15292 -0.306001,0.15172 -1.138667,0.56479 0.175621,0.30402 0.06104,0.0529 -0.04267,-0.0211 -0.435593,-0.21592 -1.442691,0.71532 3.035717,1.50532 1.693775,2.93378 0.708209,1.22638 1.499781,2.59775 0.618521,1.0715 5.394242,9.34302 -6.474234,-2.0861 -3.511017,-1.31705 -0.114774,0.14875 -0.833455,1.07822 14.171682,4.56631 -7.568647,-13.10927 -0.618722,-1.0715 -1.686069,-2.92054 -0.708207,-1.22658 -0.02311,-0.0399 -1.101724,-1.90831 -0.870198,-1.50729 z"
         style="opacity:1;fill:#000080;stroke-width:0"
         id="path25" />
      <path
         d="m 54.611685,425.10707 -7.398166,12.81374 14.098592,-4.54281 -0.804612,-0.99307 -0.17641,-0.2177 -5.187803,1.94605 -4.758532,1.53317 5.311863,-9.2002 -0.281308,-0.34729 z"
         style="opacity:1;fill:#ff0000;stroke-width:0"
         id="path24" />
    </g>
    <text
       xml:space="preserve"
       id="text55"
       style="font-weight:bold;font-size:64px;font-family:Monospace;-inkscape-font-specification:'Monospace Bold';writing-mode:lr-tb;direction:ltr;white-space:pre;shape-inside:url(#rect55);fill:#800000;fill-opacity:1;stroke-width:0"
       transform="translate(-71.484375,18.964844)"><tspan
         x="265.5"
         y="235.11503"
         id="tspan2"><tspan
           style="font-family:'Adwaita Mono';-inkscape-font-specification:'Adwaita Mono, Bold'"
           id="tspan1">KATETO</tspan></tspan></text>
  </g>
</svg>
